<svg id="visual" viewBox="0 0 1366 768" width="1366" height="768" xmlns="http://www.w3.org/2000/svg" xmlns:xlink="http://www.w3.org/1999/xlink" version="1.1"><rect x="0" y="0" width="1366" height="768" fill="#FFFFFF"></rect><path d="M0 422L45.5 420C91 418 182 414 273 400C364 386 455 362 546.2 353.5C637.3 345 728.7 352 819.8 360.7C911 369.3 1002 379.7 1093 384C1184 388.3 1275 386.7 1320.5 385.8L1366 385L1366 0L1320.5 0C1275 0 1184 0 1093 0C1002 0 911 0 819.8 0C728.7 0 637.3 0 546.2 0C455 0 364 0 273 0C182 0 91 0 45.5 0L0 0Z" fill="#fa7268"></path><path d="M0 360L45.5 344.2C91 328.3 182 296.7 273 293.2C364 289.7 455 314.3 546.2 318.7C637.3 323 728.7 307 819.8 306.2C911 305.3 1002 319.7 1093 316.3C1184 313 1275 292 1320.5 281.5L1366 271L1366 0L1320.5 0C1275 0 1184 0 1093 0C1002 0 911 0 819.8 0C728.7 0 637.3 0 546.2 0C455 0 364 0 273 0C182 0 91 0 45.5 0L0 0Z" fill="#ef5f67"></path><path d="M0 240L45.5 234C91 228 182 216 273 208C364 200 455 196 546.2 204.8C637.3 213.7 728.7 235.3 819.8 251.2C911 267 1002 277 1093 276.8C1184 276.7 1275 266.3 1320.5 261.2L1366 256L1366 0L1320.5 0C1275 0 1184 0 1093 0C1002 0 911 0 819.8 0C728.7 0 637.3 0 546.2 0C455 0 364 0 273 0C182 0 91 0 45.5 0L0 0Z" fill="#e34c67"></path><path d="M0 193L45.5 191.5C91 190 182 187 273 176C364 165 455 146 546.2 134.3C637.3 122.7 728.7 118.3 819.8 117.8C911 117.3 1002 120.7 1093 124.5C1184 128.3 1275 132.7 1320.5 134.8L1366 137L1366 0L1320.5 0C1275 0 1184 0 1093 0C1002 0 911 0 819.8 0C728.7 0 637.3 0 546.2 0C455 0 364 0 273 0C182 0 91 0 45.5 0L0 0Z" fill="#d53867"></path><path d="M0 114L45.5 111.7C91 109.3 182 104.7 273 109.3C364 114 455 128 546.2 126.7C637.3 125.3 728.7 108.7 819.8 108.5C911 108.3 1002 124.7 1093 125.3C1184 126 1275 111 1320.5 103.5L1366 96L1366 0L1320.5 0C1275 0 1184 0 1093 0C1002 0 911 0 819.8 0C728.7 0 637.3 0 546.2 0C455 0 364 0 273 0C182 0 91 0 45.5 0L0 0Z" fill="#c62368"></path></svg>