<svg id="visual" viewBox="0 0 1366 768" width="1366" height="768" xmlns="http://www.w3.org/2000/svg" xmlns:xlink="http://www.w3.org/1999/xlink" version="1.1"><rect x="0" y="0" width="1366" height="768" fill="#FFFFFF"></rect><path d="M0 526L32.5 528.5C65 531 130 536 195 550.3C260 564.7 325 588.3 390 585C455 581.7 520 551.3 585.2 559.3C650.3 567.3 715.7 613.7 780.8 623.2C846 632.7 911 605.3 976 594.8C1041 584.3 1106 590.7 1171 584.3C1236 578 1301 559 1333.5 549.5L1366 540L1366 769L1333.5 769C1301 769 1236 769 1171 769C1106 769 1041 769 976 769C911 769 846 769 780.8 769C715.7 769 650.3 769 585.2 769C520 769 455 769 390 769C325 769 260 769 195 769C130 769 65 769 32.5 769L0 769Z" fill="#001122" stroke-linecap="round" stroke-linejoin="miter"></path></svg>